<?xml version="1.0" encoding="iso-8859-1"?>
<!-- Uploaded to: SVG Repo, www.svgrepo.com, Generator: SVG Repo Mixer Tools -->
<svg height="800px" width="800px" version="1.1" id="Layer_1" xmlns="http://www.w3.org/2000/svg" xmlns:xlink="http://www.w3.org/1999/xlink" 
	 viewBox="0 0 512.001 512.001" xml:space="preserve">
<path style="fill:#FFD652;" d="M204.256,17.663c-54.962,0-99.677,44.715-99.677,99.677s44.715,99.677,99.677,99.677
	s99.677-44.715,99.677-99.677S259.217,17.663,204.256,17.663z"/>
<path style="fill:#FB9D46;" d="M245.652,175.62c-54.962,0-99.677-44.715-99.677-99.677c0-16.849,4.208-32.731,11.619-46.661
	c-31.51,16.764-53.015,49.944-53.015,88.056c0,54.962,44.715,99.677,99.677,99.677c38.112,0,71.292-21.505,88.056-53.016
	C278.383,171.413,262.501,175.62,245.652,175.62z"/>
<path style="fill:#458FDE;" d="M412.324,211.569c-54.962,0-99.677,44.715-99.677,99.677s44.715,99.677,99.677,99.677
	s99.677-44.715,99.677-99.677S467.286,211.569,412.324,211.569z"/>
<path style="fill:#4F5AA8;" d="M450.452,372.795c-54.962,0-99.677-44.715-99.677-99.677c0-17.706,4.647-34.346,12.776-48.773
	c-30.355,17.105-50.904,49.645-50.904,86.901c0,54.962,44.715,99.677,99.677,99.677c37.255,0,69.796-20.549,86.901-50.904
	C484.797,368.148,468.158,372.795,450.452,372.795z"/>
<path style="fill:#AFF078;" d="M143.252,294.361c-54.962,0-99.677,44.715-99.677,99.677s44.715,99.677,99.677,99.677
	s99.677-44.715,99.677-99.677S198.213,294.361,143.252,294.361z"/>
<path style="fill:#5AC779;" d="M177.567,459.399c-54.962,0-99.677-44.715-99.677-99.677c0-18.701,5.181-36.214,14.177-51.185
	c-29.027,17.444-48.492,49.239-48.492,85.5c0,54.962,44.715,99.677,99.677,99.677c36.26,0,68.057-19.465,85.5-48.492
	C213.78,454.218,196.268,459.399,177.567,459.399z"/>
<path style="fill:#FF7452;" d="M234.758,87.846c4.513,0,8.17-3.657,8.17-8.17s-3.657-8.17-8.17-8.17h-22.332v-9.26
	c0-4.513-3.657-8.17-8.17-8.17s-8.17,3.657-8.17,8.17v9.26h-7.081c-10.511,0-19.064,8.553-19.064,19.064v17.43
	c0,10.511,8.553,19.064,19.064,19.064h7.081v22.877h-22.332c-4.513,0-8.17,3.657-8.17,8.17c0,4.513,3.657,8.17,8.17,8.17h22.332
	v9.26c0,4.513,3.657,8.17,8.17,8.17s8.17-3.657,8.17-8.17v-9.26h7.081c10.511,0,19.064-8.553,19.064-19.064v-17.43
	c0-10.511-8.553-19.064-19.064-19.064h-7.081V87.846C212.426,87.846,234.758,87.846,234.758,87.846z M219.507,127.063
	c1.502,0,2.723,1.221,2.723,2.723v17.43c0,1.502-1.221,2.723-2.723,2.723h-7.081v-22.877
	C212.426,127.063,219.507,127.063,219.507,127.063z M196.086,110.722h-7.081c-1.502,0-2.723-1.221-2.723-2.723v-17.43
	c0-1.502,1.221-2.723,2.723-2.723h7.081V110.722z"/>
<path style="fill:#89DCFC;" d="M453.72,348.829H407.16c0.289-0.596,0.568-1.212,0.834-1.85c3.519-8.4,4.219-18.358,2.155-29.742
	h10.89c4.513,0,8.17-3.657,8.17-8.17s-3.657-8.17-8.17-8.17h-15.395c-0.964-2.659-2.048-5.379-3.257-8.159
	c-3.238-7.447-3.27-13.945-0.093-18.79c3.088-4.711,8.358-6.82,12.208-6.82c12.46,0,15.791,16.55,15.934,17.293
	c0.824,4.421,5.069,7.349,9.494,6.542c4.439-0.807,7.384-5.061,6.576-9.5c-1.929-10.609-11.099-30.674-32.004-30.674
	c-10.061,0-20.219,5.574-25.875,14.201c-6.252,9.536-6.688,21.706-1.227,34.265c0.244,0.562,0.456,1.095,0.686,1.645h-10.625
	c-4.513,0-8.17,3.657-8.17,8.17c0,4.513,3.657,8.17,8.17,8.17h16.019c5.642,24.974-6.819,31.549-8.131,32.16
	c-3.747,1.3-5.863,5.055-5.221,8.98c0.647,3.95,4.225,6.791,8.228,6.791h65.362c4.513,0,8.17-3.657,8.17-8.17
	C461.891,352.485,458.232,348.829,453.72,348.829z"/>
<path style="fill:#00A085;" d="M171.704,425.346c-0.236,0.06-23.874,5.791-37.72-4.923c-3.126-2.419-5.583-5.596-7.367-9.501h25.351
	c4.513,0,8.17-3.657,8.17-8.17c0-4.513-3.657-8.17-8.17-8.17h-28.811c-0.035-0.891-0.057-1.796-0.057-2.723
	c0-0.927,0.022-1.832,0.057-2.723h28.811c4.513,0,8.17-3.657,8.17-8.17c0-4.513-3.657-8.17-8.17-8.17h-25.349
	c1.776-3.886,4.216-7.05,7.321-9.464c13.925-10.828,37.477-5.031,37.783-4.954c4.367,1.123,8.811-1.501,9.942-5.863
	c1.133-4.367-1.49-8.827-5.859-9.959c-1.275-0.332-31.48-7.921-51.82,7.817c-7.129,5.515-12.065,13.022-14.771,22.423h-9.536
	c-4.513,0-8.17,3.657-8.17,8.17c0,4.513,3.657,8.17,8.17,8.17h7.134c-0.028,0.9-0.053,1.801-0.053,2.723
	c0,0.923,0.025,1.824,0.053,2.723h-7.134c-4.513,0-8.17,3.657-8.17,8.17c0,4.513,3.657,8.17,8.17,8.17h9.535
	c2.706,9.401,7.642,16.908,14.771,22.423c10.242,7.925,22.984,9.935,33.277,9.935c10.145-0.001,17.91-1.953,18.543-2.118
	c4.368-1.132,6.992-5.592,5.859-9.959C180.531,426.839,176.081,424.209,171.704,425.346z"/>
<g>
	<path style="fill:#4C4C4C;" d="M93.19,146.363c2.792-3.544,2.184-8.681-1.36-11.474c-3.542-2.792-8.679-2.185-11.474,1.36
		c-31.188,39.57-47.675,87.276-47.675,137.959c0,7.728,0.413,15.491,1.2,23.164l-19.605-22.055
		c-2.997-3.375-8.16-3.679-11.534-0.679c-3.373,2.998-3.677,8.161-0.679,11.534l34.86,39.217c1.55,1.745,3.772,2.743,6.106,2.743
		c2.333,0,4.557-0.998,6.106-2.743l34.86-39.217c2.998-3.373,2.694-8.536-0.679-11.534c-3.373-2.999-8.537-2.694-11.534,0.679
		l-21.246,23.901c-0.988-8.256-1.514-16.654-1.514-25.01C49.022,227.231,64.295,183.022,93.19,146.363z"/>
	<path style="fill:#4C4C4C;" d="M403.465,428.383c-1.167-2.021-3.143-3.447-5.427-3.917l-51.393-10.581
		c-4.416-0.91-8.74,1.934-9.65,6.354c-0.911,4.421,1.935,8.74,6.354,9.65l31.321,6.449c-6.653,4.985-13.663,9.639-20.901,13.817
		c-40.682,23.488-86.602,32.367-132.801,25.671c-4.451-0.642-8.61,2.449-9.257,6.915c-0.647,4.465,2.449,8.609,6.915,9.257
		c10.794,1.564,21.572,2.34,32.283,2.34c38.768,0,76.641-10.178,111.031-30.033c6.693-3.863,13.21-8.103,19.46-12.62l-9.298,28.005
		c-3.313,9.982,12.167,15.212,15.508,5.149l16.533-49.797C404.879,432.827,404.632,430.403,403.465,428.383z"/>
	<path style="fill:#4C4C4C;" d="M361.941,84.109c-6.691-3.864-13.62-7.388-20.66-10.543l28.902-5.95
		c4.42-0.91,7.265-5.23,6.354-9.65c-0.909-4.42-5.224-7.263-9.65-6.354l-51.393,10.58c-2.285,0.471-4.261,1.895-5.427,3.917
		c-1.167,2.022-1.414,4.445-0.679,6.659l16.533,49.798c1.138,3.427,4.329,5.598,7.753,5.598c0.853,0,1.721-0.135,2.575-0.418
		c4.282-1.423,6.602-6.046,5.18-10.328l-10.077-30.35c7.645,3.27,15.18,7.014,22.417,11.192
		c40.683,23.489,71.33,58.819,88.633,102.173c3.914,9.804,19.08,3.726,15.177-6.058C438.904,147.581,405.834,109.45,361.941,84.109z
		"/>
</g>
</svg>